<svg width="6" height="37" viewBox="0 0 6 37" fill="none" xmlns="http://www.w3.org/2000/svg">
<path d="M1.55684 25.75L1.10684 0.15H4.85684L4.40684 25.75H1.55684ZM3.00684 36.4C2.2735 36.4 1.64017 36.15 1.10684 35.65C0.606836 35.1167 0.356836 34.4833 0.356836 33.75C0.356836 33.0167 0.606836 32.4 1.10684 31.9C1.64017 31.3667 2.2735 31.1 3.00684 31.1C3.70684 31.1 4.30684 31.3667 4.80684 31.9C5.34017 32.4 5.60684 33.0167 5.60684 33.75C5.60684 34.4833 5.34017 35.1167 4.80684 35.65C4.30684 36.15 3.70684 36.4 3.00684 36.4Z" fill="black"/>
</svg>
